HIERARCHY
ROOT SpineBase
{
  OFFSET 0.000000 0.000000 0.000000
  CHANNELS 6 Xposition Yposition Zposition Zrotation Xrotation Yrotation
  JOINT SpineMid
  {
    OFFSET 0.000000 31.513244 0.000000
    CHANNELS 3 Zrotation Xrotation Yrotation
    JOINT SpineShoulder
    {
      OFFSET 0.206019 23.301125 -0.726564
      CHANNELS 3 Zrotation Xrotation Yrotation
      JOINT Neck
      {
        OFFSET 0.124110 7.695880 -0.543849
        CHANNELS 3 Zrotation Xrotation Yrotation
        JOINT Head
        {
          OFFSET 0.982042 12.160339 0.250711
          CHANNELS 3 Zrotation Xrotation Yrotation
          End Site
          {
            OFFSET 0 0 0
          }
        }
      }
      JOINT ShoulderLeft
      {
        OFFSET -16.663641 -4.259848 -3.861676
        CHANNELS 3 Zrotation Xrotation Yrotation
        JOINT ElbowLeft
        {
          OFFSET -7.001587 -29.349917 -1.179426
          CHANNELS 3 Zrotation Xrotation Yrotation
          JOINT WristLeft
          {
            OFFSET -1.281267 -23.387344 -8.315304
            CHANNELS 3 Zrotation Xrotation Yrotation
            JOINT HandLeft
            {
              OFFSET -1.129869 -2.935676 -0.652515
              CHANNELS 3 Zrotation Xrotation Yrotation
              JOINT HandTipLeft
              {
                OFFSET 0.321105 -7.977791 -0.373603
                CHANNELS 3 Zrotation Xrotation Yrotation
                End Site
                {
                  OFFSET 0 0 0
                }
              }
              JOINT ThumbLeft
              {
                OFFSET 4.538912 4.063337 -0.357876
                CHANNELS 3 Zrotation Xrotation Yrotation
                End Site
                {
                  OFFSET 0 0 0
                }
              }
            }
          }
        }
      }
      JOINT ShoulderRight
      {
        OFFSET 17.855878 -3.977010 -0.297256
        CHANNELS 3 Zrotation Xrotation Yrotation
        JOINT ElbowRight
        {
          OFFSET 5.616849 -30.220884 0.585808
          CHANNELS 3 Zrotation Xrotation Yrotation
          JOINT WristRight
          {
            OFFSET 2.287424 -23.980752 -5.750210
            CHANNELS 3 Zrotation Xrotation Yrotation
            JOINT HandRight
            {
              OFFSET -1.355699 -2.701794 0.486036
              CHANNELS 3 Zrotation Xrotation Yrotation
              JOINT HandTipRight
              {
                OFFSET -0.716401 -8.264705 -0.770096
                CHANNELS 3 Zrotation Xrotation Yrotation
                End Site
                {
                  OFFSET 0 0 0
                }
              }
              JOINT ThumbRight
              {
                OFFSET 3.347462 0.014372 -0.026729
                CHANNELS 3 Zrotation Xrotation Yrotation
                End Site
                {
                  OFFSET 0 0 0
                }
              }
            }
          }
        }
      }
    }
  }
  JOINT HipLeft
  {
    OFFSET -6.338678 0.515469 -4.642212
    CHANNELS 3 Zrotation Xrotation Yrotation
    JOINT KneeLeft
    {
      OFFSET -5.940815 -35.232898 3.332605
      CHANNELS 3 Zrotation Xrotation Yrotation
      JOINT AnkleLeft
      {
        OFFSET -6.626829 -37.433304 12.738765
        CHANNELS 3 Zrotation Xrotation Yrotation
        JOINT FootLeft
        {
          OFFSET -1.238638 -7.035398 -5.035073
          CHANNELS 3 Zrotation Xrotation Yrotation
          End Site
          {
            OFFSET 0 0 0
          }
        }
      }
    }
  }
  JOINT HipRight
  {
    OFFSET 7.614222 0.886082 -2.626948
    CHANNELS 3 Zrotation Xrotation Yrotation
    JOINT KneeRight
    {
      OFFSET 5.895982 -35.684799 -0.859560
      CHANNELS 3 Zrotation Xrotation Yrotation
      JOINT AnkleRight
      {
        OFFSET 4.067789 -37.024159 10.852575
        CHANNELS 3 Zrotation Xrotation Yrotation
        JOINT FootRight
        {
          OFFSET 1.933239 -5.473657 -7.991558
          CHANNELS 3 Zrotation Xrotation Yrotation
          End Site
          {
            OFFSET 0 0 0
          }
        }
      }
    }
  }
}
MOTION
Frames: 10
Frame Time: 0.033333
-59.706883 81.603806 340.428615 -0.000000 0.000000 -8.218585 -0.000000 0.000000 8.218585 -0.000000 0.000000 0.000000 -0.000000 0.000000 0.000000 0.000000 0.000000 0.000000 -0.000000 0.000000 0.000000 -0.000000 0.000000 0.000000 -0.000000 0.000000 0.000000 -0.000000 0.000000 0.000000 0.000000 0.000000 0.000000 0.000000 0.000000 0.000000 -0.000000 0.000000 0.000000 -0.000000 0.000000 0.000000 -0.000000 0.000000 0.000000 -0.000000 0.000000 0.000000 0.000000 0.000000 0.000000 0.000000 0.000000 0.000000 -0.000000 0.000000 8.218585 -0.000000 0.000000 0.000000 -0.000000 0.000000 0.000000 0.000000 0.000000 0.000000 -0.000000 0.000000 8.218585 -0.000000 0.000000 0.000000 -0.000000 0.000000 0.000000 0.000000 0.000000 0.000000
-59.705786 81.518525 340.271567 0.005118 0.214195 -8.239347 0.025631 -0.212718 8.239385 -0.000000 0.000000 0.000000 -0.000000 0.000000 0.000000 0.000000 0.000000 0.000000 -0.000000 0.000000 0.000000 -0.000000 0.000000 0.000000 7.209005 -2.719525 -0.397997 -7.931210 1.954949 0.770185 0.000000 0.000000 0.000000 0.000000 0.000000 0.000000 -0.000000 0.000000 0.000000 -0.000000 0.000000 0.000000 -3.825261 2.353669 -1.767741 4.095666 -0.505925 1.754697 0.000000 0.000000 0.000000 0.000000 0.000000 0.000000 0.025631 -0.212718 8.239385 -0.000000 0.000000 0.000000 -0.000000 0.000000 0.000000 0.000000 0.000000 0.000000 0.025631 -0.212718 8.239385 -0.000000 0.000000 0.000000 0.080838 9.606040 2.916665 0.000000 0.000000 0.000000
-59.715005 81.440433 340.114540 0.008585 0.400264 -8.269090 0.049072 -0.397338 8.269230 -0.000000 0.000000 0.000000 -0.000000 0.000000 0.000000 0.000000 0.000000 0.000000 -1.031533 0.657787 -0.109286 1.032853 -0.655712 0.121118 13.189360 -5.460848 -0.221694 -14.544310 4.166834 1.589411 0.000000 0.000000 0.000000 0.000000 0.000000 0.000000 -0.000000 0.000000 0.000000 -0.000000 0.000000 0.000000 -7.159436 4.402557 -3.146430 7.654528 -0.978825 3.392136 0.000000 0.000000 0.000000 0.000000 0.000000 0.000000 0.049072 -0.397338 8.269230 -0.000000 0.000000 0.000000 0.740820 -0.039894 -0.523636 0.000000 0.000000 0.000000 0.049072 -0.397338 8.269230 -0.000000 0.000000 0.000000 -0.138832 15.807489 4.855183 0.000000 0.000000 0.000000
-59.734541 81.369530 339.957532 0.010409 0.558384 -8.307980 0.070386 -0.554028 8.308270 -0.000000 0.000000 0.000000 -0.000000 0.000000 0.000000 0.000000 0.000000 0.000000 -1.345736 0.835234 -0.134945 1.347841 -0.831832 0.154539 18.243367 -8.212226 0.430862 -20.122540 6.719766 2.436491 0.000000 0.000000 0.000000 0.000000 0.000000 0.000000 -0.000000 0.000000 0.000000 -0.000000 0.000000 0.000000 -9.934637 6.029664 -4.151859 10.596257 -1.409623 4.785600 0.000000 0.000000 0.000000 0.000000 0.000000 0.000000 0.070386 -0.554028 8.308270 -0.000000 0.000000 0.000000 0.925424 -0.225034 -0.622637 0.000000 0.000000 0.000000 0.070386 -0.554028 8.308270 -0.000000 0.000000 0.000000 -0.396358 19.657029 6.112946 0.000000 0.000000 0.000000
-59.764392 81.305817 339.800544 0.010594 0.688705 -8.356149 0.089609 -0.682933 8.356620 -0.000000 0.000000 0.000000 -0.000000 0.000000 0.000000 0.000000 0.000000 0.000000 -1.517330 0.905490 -0.142550 2.439673 -1.576920 -0.103447 21.713879 -10.267056 1.521235 -24.913831 9.700816 3.314180 0.000000 0.000000 0.000000 0.000000 0.000000 0.000000 -0.000000 0.000000 0.000000 0.150855 0.804250 0.039413 -12.242001 6.380146 -5.028717 12.877833 -1.816247 5.844510 0.000000 0.000000 0.000000 0.000000 0.000000 0.000000 0.089609 -0.682933 8.356620 -0.000000 0.000000 0.000000 0.987846 -0.519117 -0.614043 0.000000 0.000000 0.000000 0.089609 -0.682933 8.356620 -0.000000 0.000000 0.000000 -0.591486 21.825316 6.853522 0.000000 0.000000 0.000000
-59.804559 81.249294 339.643576 0.009144 0.791354 -8.413694 0.106752 -0.784174 8.414362 -0.000000 0.000000 0.000000 -0.000000 0.000000 0.000000 0.000000 0.000000 0.000000 -1.542113 0.865638 -0.132417 2.882243 -2.213938 -0.210180 25.173899 -12.485573 2.765006 -29.123005 13.196444 4.240368 0.000000 0.000000 0.000000 0.000000 0.000000 0.000000 -0.000000 0.000000 0.000000 0.221296 0.907096 0.031645 -13.879624 6.872064 -5.433425 14.482470 -2.227661 6.514836 0.000000 0.000000 0.000000 0.000000 0.000000 0.000000 0.106752 -0.784174 8.414362 -0.000000 0.000000 0.000000 0.929069 -0.923026 -0.498517 0.000000 0.000000 0.000000 0.106752 -0.784174 8.414362 -0.000000 0.000000 0.000000 -0.687770 22.672974 7.162652 0.000000 0.000000 0.000000
-59.882922 81.193027 339.470107 -0.004164 0.866560 -8.493610 0.132118 -0.856440 8.494629 -0.000000 0.000000 0.000000 -0.000000 0.000000 0.000000 0.000000 0.000000 0.000000 -1.304106 0.596728 -0.082912 3.342731 -3.183383 -0.421777 29.114319 -16.070311 5.396058 -35.097621 19.727080 5.935968 0.000000 0.000000 0.000000 0.000000 0.000000 0.000000 -0.000000 0.000000 0.000000 0.309390 1.019441 0.020255 -14.967869 6.211858 -5.353474 15.026311 -2.734929 6.478408 0.000000 0.000000 0.000000 0.000000 0.000000 0.000000 0.132118 -0.856440 8.494629 -0.000000 0.000000 0.000000 0.374034 -2.583892 0.199066 0.000000 0.000000 0.000000 0.132118 -0.856440 8.494629 -0.000000 0.000000 0.000000 -0.346204 18.440139 5.765157 0.000000 0.000000 0.000000
-59.968901 81.155115 339.330394 -0.033691 0.905341 -8.501166 0.167172 -0.890412 8.502731 -0.000000 0.000000 0.000000 -0.813743 0.144735 0.006113 0.000000 0.000000 0.000000 -0.883589 0.265384 -0.025705 3.626840 -4.197886 -0.631223 32.626288 -20.062750 8.913806 -38.232628 27.641699 6.992731 0.000000 0.000000 0.000000 0.000000 0.000000 0.000000 -0.000000 0.000000 0.000000 0.411758 1.048058 -0.002521 -15.055188 4.536844 -4.743888 14.720656 -2.834700 5.623040 0.000000 0.000000 0.000000 0.000000 0.000000 0.000000 0.167172 -0.890412 8.502731 -0.000000 0.000000 0.000000 0.184310 -5.076946 0.796161 0.000000 0.000000 0.000000 0.167172 -0.890412 8.502731 -0.000000 0.000000 0.000000 -0.291505 16.812872 5.305272 0.000000 0.000000 0.000000
-60.030177 81.121607 339.174921 -0.037095 0.930479 -8.590299 0.175679 -0.914498 8.592002 -0.000000 0.000000 0.000000 -0.000000 0.000000 0.000000 0.000000 0.000000 0.000000 -0.000000 0.000000 0.000000 3.360991 -5.196639 -0.771553 34.955796 -21.382883 10.388322 -40.869702 31.897345 8.080291 0.000000 0.000000 0.000000 0.000000 0.000000 0.000000 -0.000000 0.000000 0.000000 0.521238 1.006599 -0.033462 -14.134593 3.430899 -4.155324 12.990779 -1.906045 4.779218 0.000000 0.000000 0.000000 0.000000 0.000000 0.000000 0.175679 -0.914498 8.592002 -0.000000 0.000000 0.000000 -0.036110 -3.529859 0.660919 0.000000 0.000000 0.000000 0.175679 -0.914498 8.592002 -0.000000 0.000000 0.000000 -0.225194 15.791381 4.966942 0.000000 0.000000 0.000000
-60.070094 81.092659 339.022274 -0.023476 0.934476 -8.686912 0.164360 -0.920209 8.688423 -0.000000 0.000000 0.000000 -0.000000 0.000000 0.000000 0.000000 0.000000 0.000000 -0.000000 0.000000 0.000000 3.799197 -6.200603 -0.822731 36.843904 -21.987620 11.150065 -42.927273 33.774598 8.914408 0.000000 0.000000 0.000000 0.000000 0.000000 0.000000 -0.000000 0.000000 0.000000 0.634179 0.892457 -0.071706 -13.452798 2.796631 -3.707338 13.046506 -2.789211 4.302105 0.000000 0.000000 0.000000 0.000000 0.000000 0.000000 0.164360 -0.920209 8.688423 -0.000000 0.000000 0.000000 -1.357593 -8.505400 2.498253 0.000000 0.000000 0.000000 0.164360 -0.920209 8.688423 -0.000000 0.000000 0.000000 -0.121576 15.435122 4.739510 0.000000 0.000000 0.000000
